<svg xmlns="http://www.w3.org/2000/svg" xmlns:xlink="http://www.w3.org/1999/xlink" width="171" height="171" viewBox="0 0 171 171">
    <defs>
        <circle id="a" cx="70.5" cy="70.5" r="70.5"/>
        <filter id="b" width="135.5%" height="135.5%" x="-17.7%" y="-14.2%" filterUnits="objectBoundingBox">
            <feOffset dy="5" in="SourceAlpha" result="shadowOffsetOuter1"/>
            <feGaussianBlur in="shadowOffsetOuter1" result="shadowBlurOuter1" stdDeviation="7.5"/>
            <feColorMatrix in="shadowBlurOuter1" values="0 0 0 0 0.717647059 0 0 0 0 0.435294118 0 0 0 0 0.968627451 0 0 0 0.5 0"/>
        </filter>
    </defs>
    <g fill="none" fill-rule="evenodd">
        <g transform="translate(15 10)">
            <use fill="#000" filter="url(#b)" xlink:href="#a"/>
            <use fill="#B76FF6" xlink:href="#a"/>
        </g>
        <path fill="#FFF" fill-rule="nonzero" d="M91.79 99.5l6.111-6.097-8.009-7.988-6.112 6.096v2.944h5.059V99.5h2.95zm23.183-37.84c-.562-.562-1.142-.544-1.739.052L94.793 80.107c-.598.595-.615 1.173-.053 1.734.562.56 1.142.543 1.739-.053l18.441-18.395c.598-.595.615-1.173.053-1.734zm4.215 31.218v9.986c0 4.17-1.484 7.734-4.452 10.695-2.968 2.96-6.542 4.441-10.723 4.441H60.175c-4.18 0-7.754-1.48-10.723-4.441-2.968-2.96-4.452-6.526-4.452-10.695V59.136c0-4.17 1.484-7.734 4.452-10.695C52.421 45.481 55.995 44 60.175 44h43.838c2.213 0 4.268.438 6.165 1.314.527.245.843.648.949 1.209.105.595-.053 1.103-.475 1.524l-2.581 2.575c-.492.49-1.054.63-1.686.42a9.394 9.394 0 0 0-2.372-.315H60.175c-2.318 0-4.303.824-5.954 2.47-1.651 1.647-2.477 3.627-2.477 5.94v43.727c0 2.312.826 4.292 2.477 5.939 1.65 1.646 3.636 2.47 5.954 2.47h43.838c2.319 0 4.304-.824 5.954-2.47 1.651-1.647 2.477-3.627 2.477-5.94v-6.622c0-.455.158-.84.474-1.156l3.372-3.363c.527-.526 1.142-.649 1.845-.368.702.28 1.053.788 1.053 1.524zM114.13 54.09l15.175 15.136-35.408 35.318H78.722V89.41l35.408-35.318zm23.395 6.937l-4.848 4.836-15.175-15.137 4.848-4.835c.983-.981 2.178-1.472 3.583-1.472 1.405 0 2.6.491 3.583 1.472l8.009 7.989c.983.98 1.475 2.172 1.475 3.574 0 1.401-.492 2.592-1.475 3.573z"/>
    </g>
</svg>
